<?xml version="1.0" standalone="no"?>
<!DOCTYPE svg PUBLIC "-//W3C//DTD SVG 20010904//EN"
 "http://www.w3.org/TR/2001/REC-SVG-20010904/DTD/svg10.dtd">
<svg version="1.0" xmlns="http://www.w3.org/2000/svg"
 width="398.000000pt" height="398.000000pt" viewBox="0 0 398.000000 398.000000"
 preserveAspectRatio="xMidYMid meet">
<metadata>
Created by potrace 1.11, written by Peter Selinger 2001-2013
</metadata>
<g transform="translate(0.000000,398.000000) scale(0.100000,-0.100000)"
fill="#000000" stroke="none">
<path d="M1760 3379 c-842 -71 -1520 -518 -1677 -1105 -23 -87 -26 -118 -26
-249 0 -129 4 -164 26 -246 157 -593 831 -1037 1682 -1109 969 -82 1885 374
2104 1048 170 521 -105 1060 -709 1390 -387 211 -910 313 -1400 271z m580 -64
c167 -23 286 -51 452 -105 550 -181 933 -530 1050 -958 30 -110 30 -344 0
-454 -97 -356 -382 -663 -797 -859 -873 -413 -2051 -249 -2633 365 -639 676
-258 1583 808 1920 173 55 321 82 595 110 81 8 413 -4 525 -19z"/>
<path d="M1615 2880 c-174 -31 -427 -256 -460 -407 -8 -41 10 -100 36 -113 24
-13 62 5 114 54 36 34 36 35 21 63 -9 15 -21 35 -28 44 -39 56 61 184 169 215
56 16 60 16 118 -5 70 -25 114 -26 180 -6 27 8 50 13 51 12 1 -1 -58 -56 -130
-123 -226 -207 -272 -273 -492 -696 l-137 -264 -114 -45 c-67 -26 -150 -68
-201 -101 -70 -47 -93 -69 -129 -124 -50 -78 -54 -114 -18 -149 40 -41 143
-26 272 39 136 68 235 153 357 306 67 84 70 86 160 121 106 41 184 80 242 120
31 21 46 41 58 75 l16 46 -33 -26 c-54 -44 -163 -106 -238 -137 -39 -16 -73
-29 -75 -29 -3 0 18 42 46 93 28 50 114 218 190 372 179 362 218 426 349 574
31 35 57 68 59 72 2 5 -8 13 -23 19 -20 8 -34 6 -63 -9 -66 -33 -94 -34 -161
-7 -63 27 -71 28 -136 16z m-615 -1318 c0 -14 -68 -109 -119 -165 -53 -57
-153 -117 -196 -117 -13 0 -26 9 -33 25 -26 57 100 173 254 233 85 34 94 36
94 24z"/>
<path d="M2675 2875 c-212 -43 -364 -122 -502 -260 -103 -103 -148 -188 -141
-266 5 -50 29 -89 55 -89 7 0 50 14 94 31 100 39 113 59 63 105 -40 37 -41 53
-10 120 30 65 74 114 145 163 118 80 237 126 358 139 140 15 225 -14 265 -91
60 -119 -59 -351 -201 -388 -41 -10 -56 -20 -68 -42 -8 -16 -13 -30 -11 -31 2
-1 15 -10 30 -19 15 -9 29 -29 33 -46 18 -84 -95 -326 -204 -439 -43 -44 -85
-67 -102 -56 -6 3 -9 36 -7 72 4 89 -14 93 -88 19 -62 -62 -68 -90 -28 -128
21 -20 38 -24 99 -27 241 -13 511 205 539 432 11 87 -18 145 -93 187 l-55 31
94 34 c88 31 166 76 217 123 31 29 81 120 91 169 27 116 -56 217 -209 256 -78
19 -273 20 -364 1z"/>
<path d="M2734 2661 c-84 -41 -178 -117 -229 -185 -47 -63 -95 -145 -183 -321
-122 -240 -212 -364 -308 -420 -44 -26 -132 -40 -149 -24 -3 4 -8 23 -12 42
-4 27 2 52 26 103 17 36 31 75 31 86 0 18 -5 20 -36 15 -52 -9 -164 -68 -187
-99 -28 -38 -35 -129 -12 -164 25 -39 78 -57 171 -56 204 0 421 112 577 296
71 84 111 153 233 401 88 179 106 207 166 269 38 40 64 74 61 82 -9 25 -67 15
-149 -25z"/>
</g>
</svg>
